<svg width="110px" height="46px" viewBox="449 429 110 46" version="1.1" xmlns="http://www.w3.org/2000/svg" xmlns:xlink="http://www.w3.org/1999/xlink">
    <!-- Generator: Sketch 41 (35326) - http://www.bohemiancoding.com/sketch -->
    <desc>Created with Sketch.</desc>
    <defs></defs>
    <g id="logo" stroke="none" stroke-width="1" fill="none" fill-rule="evenodd" transform="translate(449.000000, 429.000000)">
        <path d="M43.2465843,33.1963059 C43.2420745,33.079051 43.2438784,32.9608941 43.2375647,32.8445412 C42.6585059,19.646149 31.7438784,9.08689412 18.4056824,9.08689412 C17.9041922,9.08689412 17.4974078,9.49367843 17.4974078,9.99516863 C17.4974078,10.4966588 17.9041922,10.9034431 18.4056824,10.9034431 C22.8487412,10.9034431 26.9995647,12.170698 30.5226235,14.3579529 C27.8627412,13.1727765 24.922349,12.5080314 21.8277216,12.5080314 C21.3262314,12.5080314 20.9194471,12.9148157 20.9194471,13.4172078 C20.9194471,13.918698 21.3262314,14.3254824 21.8277216,14.3254824 C25.680898,14.3254824 29.2761137,15.4466196 32.3112118,17.3732078 C30.1410941,16.4450902 27.7545059,15.9300706 25.2488588,15.9300706 C24.7473686,15.9300706 24.3405843,16.3368549 24.3405843,16.8383451 C24.3405843,17.3407373 24.7473686,17.7466196 25.2488588,17.7466196 C28.5383098,17.7466196 31.5995647,18.7351686 34.1575255,20.4254431 C32.4627412,19.7354431 30.6110157,19.3512078 28.670898,19.3512078 C28.1685059,19.3512078 27.7626235,19.7579922 27.7626235,20.2603843 C27.7626235,20.7618745 28.1685059,21.1686588 28.670898,21.1686588 C31.3839961,21.1686588 33.9004667,22.0210118 35.9713686,23.4686588 C34.7627412,23.0194824 33.4558,22.7732471 32.0920353,22.7732471 C31.5905451,22.7732471 31.1837608,23.1800314 31.1837608,23.6815216 C31.1837608,24.1830118 31.5905451,24.5897961 32.0920353,24.5897961 C34.238702,24.5897961 36.2176039,25.3185804 37.7978392,26.5389333 C37.0753686,26.3152471 36.308702,26.1952863 35.5140745,26.1952863 C35.0125843,26.1952863 34.6058,26.6011686 34.6058,27.1035608 C34.6058,27.605051 35.0125843,28.0118353 35.5140745,28.0118353 C38.7863882,28.0118353 41.4489765,30.6735216 41.4489765,33.9467373 C41.4489765,34.4482275 41.8548588,34.8550118 42.357251,34.8550118 C42.8587412,34.8550118 43.2655255,34.4482275 43.2655255,33.9467373 C43.2655255,33.6950902 43.2592118,33.4443451 43.2465843,33.1963059 L43.2465843,33.1963059 Z" id="Fill-2" fill="#FFFFFF"></path>
        <path d="M78.2654824,25.8400941 L76.1242275,25.8400941 L76.1242275,11.5034275 L78.2654824,11.5034275 C78.5983059,11.5034275 78.8670902,11.2337412 78.8670902,10.9009176 C78.8670902,10.5689961 78.5983059,10.2993098 78.2654824,10.2993098 L72.7788549,10.2993098 C72.4460314,10.2993098 72.1772471,10.5689961 72.1772471,10.9009176 C72.1772471,11.2337412 72.4460314,11.5034275 72.7788549,11.5034275 L74.9201098,11.5034275 L74.9201098,25.8400941 L72.7788549,25.8400941 C72.4460314,25.8400941 72.1772471,26.1097804 72.1772471,26.441702 C72.1772471,26.7745255 72.4460314,27.0442118 72.7788549,27.0442118 L78.2654824,27.0442118 C78.5983059,27.0442118 78.8670902,26.7745255 78.8670902,26.441702 C78.8670902,26.1097804 78.5983059,25.8400941 78.2654824,25.8400941" id="Fill-4" fill="#FFFFFF"></path>
        <path d="M66.1885882,21.1185098 L67.3331765,21.1185098 L67.3331765,13.9957255 L66.1885882,13.9957255 L66.1885882,21.1185098 Z M68.5363922,21.1185098 L69.6845882,21.1185098 L69.6845882,13.9957255 L68.5363922,13.9957255 L68.5363922,21.1185098 Z M67.3322745,25.8384706 L65.4318431,25.8384706 C65.0999216,25.8384706 64.8302353,26.1081569 64.8302353,26.4409804 C64.8302353,26.772902 65.0999216,27.0425882 65.4318431,27.0425882 L70.4368235,27.0425882 C70.7696471,27.0425882 71.0384314,26.772902 71.0384314,26.4400784 C71.0384314,26.1081569 70.7696471,25.8384706 70.4368235,25.8384706 L68.5363922,25.8384706 L68.5363922,22.3226275 L70.2735686,22.3226275 C70.2735686,22.3226275 70.2816863,22.3235294 70.2861961,22.3235294 C70.5360392,22.3235294 70.7507059,22.172 70.8418039,21.9555294 C70.8724706,21.8833725 70.8887059,21.804 70.8887059,21.7201176 L70.8887059,21.7174118 L70.8887059,13.3950196 C70.8887059,13.1045882 70.6821569,12.8619608 70.4079608,12.8051373 C70.3673725,12.7970196 70.3249804,12.7916078 70.2825882,12.7916078 L68.5363922,12.7916078 L68.5363922,10.5998431 C68.5363922,10.2679216 68.2667059,9.99823529 67.9347843,9.99823529 C67.6019608,9.99823529 67.3322745,10.2679216 67.3322745,10.5998431 L67.3322745,12.7916078 L65.5869804,12.7916078 C65.2956471,12.7916078 65.0530196,12.9981569 64.997098,13.2732549 C64.9889804,13.3129412 64.9844706,13.3535294 64.9844706,13.3950196 L64.9844706,21.6750196 C64.9835686,21.6903529 64.9799608,21.7047843 64.9799608,21.7201176 C64.9799608,22.011451 65.1865098,22.2540784 65.4607059,22.31 C65.5012941,22.3190196 65.5436863,22.3235294 65.5860784,22.3235294 C65.5905882,22.3235294 65.595098,22.3226275 65.5996078,22.3226275 L67.3322745,22.3226275 L67.3322745,25.8384706 Z" id="Fill-6" fill="#FFFFFF"></path>
        <path d="M58.8518588,14.1412118 C58.5316627,14.1412118 58.271898,14.4009765 58.271898,14.7211725 C58.271898,15.0413686 58.5316627,15.3011333 58.8518588,15.3011333 C60.3049176,15.3011333 61.4864863,14.1195647 61.4864863,12.6665059 C61.4864863,11.2134471 60.3049176,10.0309765 58.8518588,10.0309765 C58.5316627,10.0309765 58.271898,10.2907412 58.271898,10.6109373 C58.271898,10.9311333 58.5316627,11.190898 58.8518588,11.190898 C59.6654275,11.190898 60.3265647,11.8529373 60.3265647,12.6665059 C60.3265647,13.4791725 59.6654275,14.1412118 58.8518588,14.1412118" id="Fill-8" fill="#FFFFFF"></path>
        <path d="M58.8518588,15.9027412 C58.5316627,15.9027412 58.271898,16.1625059 58.271898,16.482702 C58.271898,16.802898 58.5316627,17.0626627 58.8518588,17.0626627 C59.6654275,17.0626627 60.3265647,17.724702 60.3265647,18.5373686 C60.3265647,19.3509373 59.6654275,20.0129765 58.8518588,20.0129765 C58.5316627,20.0129765 58.271898,20.2727412 58.271898,20.5929373 C58.271898,20.9131333 58.5316627,21.172898 58.8518588,21.172898 C60.3049176,21.172898 61.4864863,19.9904275 61.4864863,18.5373686 C61.4864863,17.0843098 60.3049176,15.9027412 58.8518588,15.9027412" id="Fill-9" fill="#FFFFFF"></path>
        <path d="M58.8021608,21.794349 C58.4819647,21.8006627 58.2276118,22.0649373 58.2330235,22.3851333 C58.2393373,22.7053294 58.5036118,22.9596824 58.8238078,22.9542706 C59.6373765,22.9389373 60.3111412,23.5874471 60.3264745,24.4010157 C60.3418078,25.2136824 59.693298,25.8874471 58.8797294,25.9036824 C58.5595333,25.9090941 58.3051804,26.1742706 58.3114941,26.4944667 C58.3169059,26.8146627 58.5820824,27.0690157 58.9022784,27.062702 C60.3544353,27.0356431 61.5143569,25.8315255 61.4863961,24.3784667 C61.4593373,22.9263098 60.2552196,21.7672902 58.8021608,21.794349" id="Fill-10" fill="#FFFFFF"></path>
        <path d="M49.2890902,20.6586902 C49.1177176,20.6415529 48.970698,20.7019843 48.8642667,20.7885725 C48.7343843,20.894102 48.6541098,21.0375137 48.648698,21.1998667 C48.6171294,22.6592392 48.2103451,24.4045333 47.5383843,25.7764157 C47.430149,25.9820627 47.4635216,26.1913176 47.5879922,26.344651 C47.6556392,26.4276314 47.7467373,26.4916706 47.8495608,26.5448863 C48.0687373,26.6215529 48.2879137,26.6017098 48.4529725,26.4664157 C48.5359529,26.3996706 48.5999922,26.3085725 48.6649333,26.1958275 C49.316149,24.8221412 49.8023059,22.8351216 49.8338745,21.2566902 C49.8492078,21.1069647 49.798698,20.9707686 49.7121098,20.8643373 C49.6156,20.7461804 49.4721882,20.6668078 49.2890902,20.6586902" id="Fill-11" fill="#FFFFFF"></path>
        <path d="M55.3132863,20.7008118 C55.3078745,20.5384588 55.2276,20.3950471 55.0977176,20.2895176 C54.9912863,20.2029294 54.8442667,20.142498 54.6728941,20.1596353 C54.4888941,20.1677529 54.3454824,20.2480275 54.2498745,20.3661843 C54.1632863,20.4726157 54.1118745,20.6079098 54.1272078,20.7576353 C54.1596784,22.3360667 54.6458353,24.3230863 55.296149,25.6967725 C55.3619922,25.8095176 55.4260314,25.9006157 55.5081098,25.9673608 C55.6740706,26.1026549 55.8923451,26.1234 56.1124235,26.0467333 C56.2152471,25.9926157 56.3063451,25.9285765 56.3730902,25.846498 C56.4984627,25.6922627 56.5309333,25.4830078 56.4236,25.2782627 C55.7516392,23.9054784 55.3439529,22.1601843 55.3132863,20.7008118" id="Fill-12" fill="#FFFFFF"></path>
        <path d="M56.2489804,10.0094196 L48.1746275,10.0094196 C47.8427059,10.0094196 47.5730196,10.2791059 47.5730196,10.6110275 C47.5730196,10.943851 47.8427059,11.2135373 48.1746275,11.2135373 L56.2489804,11.2135373 C56.5818039,11.2135373 56.8505882,10.943851 56.8505882,10.6110275 C56.8505882,10.2791059 56.5818039,10.0094196 56.2489804,10.0094196" id="Fill-13" fill="#FFFFFF"></path>
        <path d="M85.5555804,10.2233647 L85.5591882,34.5952471 C85.5591882,34.7927765 85.7197373,34.9533255 85.9172667,34.9533255 C86.1147961,34.9533255 86.2753451,34.7927765 86.2753451,34.5952471 L86.2717373,10.2233647 C86.2717373,10.0258353 86.1111882,9.86528627 85.9136588,9.86528627 C85.7161294,9.86528627 85.5555804,10.0258353 85.5555804,10.2233647" id="Fill-14" fill="#FFFFFF"></path>
        <path d="M93.9047608,12.6468431 L95.556251,14.2983333 C95.6599765,14.4020588 95.8277412,14.4020588 95.9314667,14.2983333 C96.0342902,14.1946078 96.0342902,14.0268431 95.9314667,13.9231176 L94.2799765,12.2716275 C94.176251,12.167902 94.0084863,12.167902 93.9047608,12.2716275 C93.8010353,12.3753529 93.8010353,12.5431176 93.9047608,12.6468431" id="Fill-15" fill="#FFFFFF"></path>
        <path d="M94.2797961,14.2981529 L95.9312863,12.6466627 C96.0350118,12.5429373 96.0350118,12.3751725 95.9312863,12.2714471 C95.8275608,12.1686235 95.6597961,12.1686235 95.5560706,12.2714471 L93.9045804,13.9229373 C93.8008549,14.0266627 93.8008549,14.1944275 93.9045804,14.2981529 C94.0083059,14.4018784 94.1760706,14.4018784 94.2797961,14.2981529" id="Fill-16" fill="#FFFFFF"></path>
        <path d="M56.2489804,17.7743098 L48.1746275,17.7743098 C47.8427059,17.7743098 47.5730196,18.0439961 47.5730196,18.3759176 C47.5730196,18.7087412 47.8427059,18.9784275 48.1746275,18.9784275 L51.6101961,18.9784275 L51.6101961,26.4421529 C51.6101961,26.7749765 51.8798824,27.0437608 52.2118039,27.0437608 C52.5446275,27.0437608 52.8143137,26.7749765 52.8143137,26.4421529 L52.8143137,18.9784275 L56.2489804,18.9784275 C56.5818039,18.9784275 56.8505882,18.7087412 56.8505882,18.3759176 C56.8505882,18.0439961 56.5818039,17.7743098 56.2489804,17.7743098" id="Fill-17" fill="#FFFFFF"></path>
        <path d="M52.6935412,15.8480824 L52.6935412,13.2143569 C52.6935412,12.8824353 52.4238549,12.612749 52.0919333,12.612749 C51.7591098,12.612749 51.4894235,12.8824353 51.4894235,13.2143569 L51.4894235,15.8480824 C51.4894235,16.1809059 51.7591098,16.4496902 52.0919333,16.4496902 C52.4238549,16.4496902 52.6935412,16.1809059 52.6935412,15.8480824" id="Fill-18" fill="#FFFFFF"></path>
        <path d="M49.4038196,15.8597176 L49.4038196,13.2259922 C49.4038196,12.8940706 49.1341333,12.6243843 48.8022118,12.6243843 C48.4693882,12.6243843 48.199702,12.8940706 48.199702,13.2259922 L48.199702,15.8597176 C48.199702,16.1925412 48.4693882,16.4613255 48.8022118,16.4613255 C49.1341333,16.4613255 49.4038196,16.1925412 49.4038196,15.8597176" id="Fill-19" fill="#FFFFFF"></path>
        <path d="M55.5076588,15.832298 L55.5076588,13.1985725 C55.5076588,12.866651 55.2379725,12.5969647 54.906051,12.5969647 C54.5732275,12.5969647 54.3035412,12.866651 54.3035412,13.1985725 L54.3035412,15.832298 C54.3035412,16.1651216 54.5732275,16.4339059 54.906051,16.4339059 C55.2379725,16.4339059 55.5076588,16.1651216 55.5076588,15.832298" id="Fill-20" fill="#FFFFFF"></path>
        <path d="M75.8679804,31.0168078 C75.6415882,31.0168078 75.4891569,31.1548078 75.4891569,31.3595529 L75.4891569,32.9019059 C75.4891569,33.1030431 75.6451961,33.243749 75.8679804,33.243749 C76.0970784,33.243749 76.2567255,33.1030431 76.2567255,32.9019059 L76.2567255,31.3595529 C76.2567255,31.1548078 76.1006863,31.0168078 75.8679804,31.0168078" id="Fill-21" fill="#FFFFFF"></path>
        <path d="M49.3296784,32.7162824 L48.3303059,32.7162824 L48.3303059,31.759302 C48.3303059,31.7367529 48.3348157,31.7304392 48.350149,31.734949 L49.3594431,31.734949 C49.7184235,31.734949 49.8861882,31.8900863 49.8861882,32.2211059 C49.8861882,32.5268706 49.6724235,32.7162824 49.3296784,32.7162824 L49.3296784,32.7162824 Z M50.6817176,34.3470275 C50.4165412,33.6976157 50.2541882,33.3332235 50.0611686,33.1338902 C50.4454039,32.9571059 50.6528549,32.6170667 50.6528549,32.1534588 C50.6528549,31.4706745 50.168502,31.045851 49.3892078,31.045851 L48.2256784,31.045851 C47.7864235,31.045851 47.5735608,31.2632235 47.5735608,31.7105961 L47.5735608,34.7628314 C47.5735608,34.9729882 47.7277961,35.1145961 47.9568941,35.1145961 C48.1805804,35.1145961 48.3303059,34.9747922 48.3303059,34.7673412 L48.3303059,33.4008706 L49.1005804,33.4008706 C49.4911294,33.4008706 49.6011686,33.6471059 49.961051,34.5905569 L50.0855216,34.8990275 C50.1396392,35.0343216 50.2623059,35.1145961 50.4138353,35.1145961 C50.4634431,35.1145961 50.5157569,35.1073804 50.5572471,35.0965569 C50.7214039,35.0559686 50.8323451,34.9242824 50.8323451,34.7673412 C50.8323451,34.7240471 50.8251294,34.6843608 50.8097961,34.6383608 L50.6817176,34.3470275 Z" id="Fill-22" fill="#FFFFFF"></path>
        <path d="M57.3025608,31.0169882 C57.0761686,31.0169882 56.9237373,31.1549882 56.9237373,31.3597333 L56.9237373,34.7727529 C56.9237373,34.9738902 57.0797765,35.1145961 57.3025608,35.1145961 C57.5316588,35.1145961 57.6913059,34.9738902 57.6913059,34.7727529 L57.6913059,31.3597333 C57.6913059,31.1549882 57.5352667,31.0169882 57.3025608,31.0169882" id="Fill-23" fill="#FFFFFF"></path>
        <path d="M52.2549176,33.3519843 C52.2549176,33.5783765 52.3929176,33.7308078 52.5976627,33.7308078 L54.7632706,33.7308078 C54.9653098,33.7308078 55.1060157,33.5747686 55.1060157,33.3519843 C55.1060157,33.1228863 54.9653098,32.9632392 54.7632706,32.9632392 L52.5976627,32.9632392 C52.3929176,32.9632392 52.2549176,33.1192784 52.2549176,33.3519843" id="Fill-24" fill="#FFFFFF"></path>
        <path d="M65.9514627,34.3963647 L64.8853451,34.4080902 C64.8853451,34.4080902 64.8826392,34.4008745 64.8826392,34.3828353 L64.8826392,33.3140118 L65.9415412,33.3140118 C66.3690706,33.3140118 66.5774235,33.4926 66.5774235,33.8578941 C66.5774235,34.2204824 66.3726784,34.3963647 65.9514627,34.3963647 L65.9514627,34.3963647 Z M65.9162863,31.7355804 C66.3970314,31.7355804 66.4583647,31.9610706 66.4583647,32.1586 C66.4583647,32.5482471 66.1688353,32.6294235 65.9262078,32.6294235 L64.8826392,32.6294235 L64.8826392,31.7355804 L65.9162863,31.7355804 Z M66.8317765,32.9406 C67.096051,32.7584039 67.2250314,32.4806 67.2250314,32.1008745 C67.2250314,31.4406392 66.7487961,31.0455804 65.9514627,31.0455804 L64.7780118,31.0455804 C64.3423647,31.0455804 64.1304039,31.2629529 64.1304039,31.7112275 L64.1304039,34.4261294 C64.1304039,34.8698941 64.3423647,35.0854627 64.7780118,35.0854627 L66.0064824,35.0854627 C66.8534235,35.0854627 67.3594235,34.6426 67.3594235,33.9011882 C67.3594235,33.4447961 67.1790314,33.1182863 66.8317765,32.9406 L66.8317765,32.9406 Z" id="Fill-25" fill="#FFFFFF"></path>
        <path d="M70.4578392,34.4541804 C69.7768588,34.4541804 69.3547412,33.9229255 69.3547412,33.0687686 C69.3547412,32.2110039 69.7768588,31.6779451 70.4578392,31.6779451 C71.1325059,31.6779451 71.5510157,32.1992784 71.5510157,33.0399059 C71.5510157,33.9256314 71.1424275,34.4541804 70.4578392,34.4541804 M70.4578392,30.9735137 C69.312349,30.9735137 68.5718392,31.794298 68.5718392,33.0633569 C68.5718392,34.3387294 69.312349,35.1631216 70.4578392,35.1631216 C71.5970157,35.1631216 72.3330157,34.3405333 72.3330157,33.0687686 C72.3330157,31.796102 71.5970157,30.9735137 70.4578392,30.9735137" id="Fill-26" fill="#FFFFFF"></path>
        <path d="M62.560902,32.6632471 C62.5627059,32.6479137 62.5690196,32.6343843 62.5690196,32.619051 C62.5518824,31.7089725 61.7969412,30.9819922 60.8868627,30.9991294 C59.9758824,31.0171686 59.2498039,31.7712078 59.2669412,32.6821882 C59.2669412,32.6821882 59.2678431,32.686698 59.2687451,32.6894039 C59.2687451,32.6894039 59.2660392,32.6957176 59.2660392,32.6975216 L59.2660392,34.7720314 C59.2660392,34.9767765 59.4202745,35.1147765 59.6502745,35.1147765 C59.8730588,35.1147765 60.029098,34.9740706 60.029098,34.7720314 L60.029098,32.6993255 C60.0191765,32.1897176 60.3880784,31.7648941 60.8976863,31.7558745 C61.4072941,31.7459529 61.7960392,32.1897176 61.8059608,32.6993255 L61.8068627,32.7011294 L61.8068627,34.7720314 C61.8068627,34.9740706 61.962,35.1147765 62.1847843,35.1147765 C62.4147843,35.1147765 62.5690196,34.9767765 62.5690196,34.7720314 L62.5690196,32.6975216 C62.5690196,32.6876 62.5627059,32.6740706 62.560902,32.6632471" id="Fill-27" fill="#FFFFFF"></path>
        <path d="M55.396898,32.686698 C55.398702,32.6713647 55.4050157,32.6578353 55.4050157,32.642502 C55.3878784,31.7324235 54.6329373,31.0054431 53.7228588,31.0225804 C52.8118784,31.0397176 52.0858,31.7946588 52.1029373,32.7056392 L52.1047412,32.7128549 C52.1038392,32.7155608 52.1020353,32.7191686 52.1020353,32.7209725 L52.1020353,34.7954824 C52.1020353,35.0002275 52.2562706,35.1382275 52.4862706,35.1382275 C52.7090549,35.1382275 52.8650941,34.9975216 52.8650941,34.7954824 L52.8650941,32.7227765 C52.8551725,32.2131686 53.2240745,31.7883451 53.7336824,31.7793255 C54.2432902,31.7694039 54.6329373,32.2131686 54.6419569,32.7227765 L54.6428588,32.7245804 L54.6428588,34.7954824 C54.6428588,34.9975216 54.7979961,35.1382275 55.0207804,35.1382275 C55.2507804,35.1382275 55.4050157,35.0002275 55.4050157,34.7954824 L55.4050157,32.7209725 C55.4050157,32.711051 55.398702,32.6975216 55.396898,32.686698" id="Fill-28" fill="#FFFFFF"></path>
        <path d="M77.9740588,31.0350275 C77.7494706,30.9745961 77.5627647,31.067498 77.510451,31.2650275 L77.0098627,32.8091843 L76.6977843,33.7860078 C76.6977843,33.7860078 76.6977843,33.7887137 76.6968824,33.7905176 C76.6968824,33.7923216 76.6950784,33.7932235 76.6941765,33.7959294 L76.6914706,33.804949 L76.6887647,33.804949 C76.5597843,34.1260471 76.2648431,34.3560471 75.8923333,34.3632627 C75.4927647,34.3704784 75.1707647,34.0980863 75.0435882,33.7345961 L75.0408824,33.7345961 L74.9840588,33.5632235 L74.9840588,33.5785569 L74.9840588,33.5776549 L74.9840588,33.5623216 L74.7675882,32.9056941 C74.7666863,32.9047922 74.7657843,32.9038902 74.7648824,32.9038902 L74.2354314,31.2740471 C74.1822157,31.0765176 73.9964118,30.9836157 73.7718235,31.0440471 C73.5526471,31.1026745 73.4417059,31.274949 73.4940196,31.4724784 L74.3057843,33.9718118 C74.3075882,33.9763216 74.3111961,33.9790275 74.312098,33.9835373 C74.5339804,34.6518902 75.163549,35.1335373 75.9040588,35.1191059 C76.6238235,35.1055765 77.2227255,34.6284392 77.4355882,33.9799294 C77.4364902,33.9763216 77.4382941,33.9745176 77.4391961,33.9718118 L78.2509608,31.4634588 C78.3041765,31.2659294 78.1932353,31.0936549 77.9740588,31.0350275" id="Fill-29" fill="#FFFFFF"></path>
        <path d="M93.5687804,11.4839451 C93.5687804,11.4839451 94.0423098,10.4187294 95.2725843,10.6081412 C96.6138,10.8146902 96.7878784,12.1468863 96.7878784,12.1468863 C96.7878784,12.1468863 98.0190549,12.336298 98.0190549,13.4962196 C98.0190549,14.5370824 96.7878784,14.6083373 96.7878784,14.6083373 L93.3793686,14.6083373 C93.3793686,14.6083373 91.8171725,14.6083373 91.8171725,13.1173961 C91.8171725,11.5308471 93.5687804,11.4839451 93.5687804,11.4839451" id="Fill-30" fill="#FFFFFF"></path>
        <path d="M92.9635647,33.3945569 L92.3339961,33.3945569 C92.2627412,33.3945569 92.2041137,33.3359294 92.2041137,33.2646745 L92.2041137,28.6827137 C92.2041137,28.6114588 92.2627412,28.5528314 92.3339961,28.5528314 L92.9635647,28.5528314 C93.0348196,28.5528314 93.0934471,28.6114588 93.0934471,28.6827137 L93.0934471,33.2646745 C93.0934471,33.3359294 93.0348196,33.3945569 92.9635647,33.3945569" id="Fill-31" fill="#FFFFFF"></path>
        <path d="M94.1588431,33.3945569 C93.9144118,33.3945569 93.7141765,33.1943216 93.7141765,32.9498902 L93.7141765,28.997498 C93.7141765,28.7530667 93.9144118,28.5528314 94.1588431,28.5528314 C94.2797059,28.5528314 94.3906471,28.6024392 94.4709216,28.6818118 C94.5322549,28.7422431 96.4642549,30.0212235 97.404098,30.6417725 C97.7071569,30.8420078 97.7071569,31.1053804 97.404098,31.3056157 C96.4642549,31.9261647 94.5340588,33.2033412 94.4727255,33.2637725 C94.392451,33.344949 94.2806078,33.3945569 94.1588431,33.3945569" id="Fill-32" fill="#FFFFFF"></path>
        <path d="M108.594365,39.2661412 C108.594365,41.800651 106.532482,43.8625333 103.997973,43.8625333 L31.0518941,43.8625333 C29.3029922,43.8625333 27.6794627,42.8460235 26.915502,41.272102 L26.891149,41.2215922 L2.06467843,6.87672941 C1.50365882,5.67892549 1.58663922,4.29892549 2.29107059,3.17508235 C3.00452157,2.03500392 4.23299216,1.35492549 5.57781569,1.35492549 L103.997973,1.35492549 C106.532482,1.35492549 108.594365,3.41680784 108.594365,5.95131765 L108.594365,39.2661412 Z M103.997973,0.0597098039 L5.57781569,0.0606117647 C3.78471765,0.0606117647 2.1458549,0.967082353 1.19338431,2.48778824 C0.241815686,4.00759216 0.139894118,5.87825882 0.922796078,7.49096471 L0.94805098,7.54237647 L25.7763255,41.8899451 C26.7657765,43.8769647 28.8294627,45.157749 31.0518941,45.157749 L103.997973,45.157749 C107.246835,45.157749 109.88958,42.5150039 109.88958,39.2661412 L109.88958,5.95131765 C109.88958,2.7024549 107.246835,0.0597098039 103.997973,0.0597098039 L103.997973,0.0597098039 Z" id="Fill-33" fill="#FFFFFF"></path>
    </g>
</svg>
